<?xml version="1.0" standalone="no"?>
<!DOCTYPE svg PUBLIC "-//W3C//DTD SVG 20010904//EN"
 "http://www.w3.org/TR/2001/REC-SVG-20010904/DTD/svg10.dtd">
<svg version="1.0" xmlns="http://www.w3.org/2000/svg"
 width="400.000000pt" height="400.000000pt" viewBox="0 0 400.000000 400.000000"
 preserveAspectRatio="xMidYMid meet">
<metadata>
Created by potrace 1.11, written by Peter Selinger 2001-2013
</metadata>
<g transform="translate(0.000000,400.000000) scale(0.100000,-0.100000)"
fill="#000000" stroke="none">
<path d="M348 3969 c-122 -67 -253 -198 -318 -320 l-30 -57 0 -1592 0 -1592
30 -57 c66 -123 197 -255 320 -320 l58 -31 1592 0 1592 0 57 30 c123 66 255
197 320 320 l31 58 0 1592 0 1592 -31 58 c-65 123 -197 254 -320 320 l-57 30
-1593 0 -1594 -1 -57 -30z m1346 -711 c30 -57 77 -141 105 -188 28 -47 83
-140 123 -207 40 -67 75 -122 78 -122 3 -1 85 139 184 309 l179 310 598 0
c330 0 599 -3 599 -6 0 -3 -8 -18 -19 -32 -10 -15 -152 -259 -316 -542 -440
-760 -627 -1082 -875 -1510 -123 -212 -251 -433 -284 -492 -34 -59 -65 -106
-70 -105 -9 3 -1556 2666 -1556 2680 0 4 270 7 599 7 l599 0 56 -102z"/>
</g>
</svg>
